PathFileType	4	(X/Y/Z)	C:\Vicon\SynologyDrive\Alex P\Athlete_3\Athlete_3_22_07_06\static_01\marker_experimental.trc																																																																																																																																																																																																																									
DataRate	CameraRate	NumFrames	NumMarkers	Units	OrigDataRate	OrigDataStartFrame	OrigNumFrames																																																																																																																																																																																																																					
200	200	4	79	mm	200	259	693																																																																																																																																																																																																																					
Frame#	Time	GLAB			RFHD			LFHD			C7			T6			SPINMOL			SPINM2			SPINM3			T12			BELTOL			BELT2			BELT3			SACROL			SACR2			SACR3			LASI			RASI			LPSI			RPSI			LTHOL			LTH2			LTH3			LKNEL			LKNEM			LFIB			LSHAOL			LSHA2			LSHA3			LMALL			LMALM			LHEE			LTOE			LM5			RTHOL			RTH2			RTH3			RKNEL			RKNEM			RFIB			RSHAOL			RSHA2			RSHA3			RMALL			RMALM			RHEE			RTOE			RM5			STRN			XIPH			LACR			LUAOL			LUA2			LUA3			LCUBL			LCUBM			LLAOL			LLA2			LLA3			LWRR			LWRU			RACR			RUAOL			RUA2			RUA3			RCUBL			RCUBM			RLAOL			RLA2			RLA3			RWRR			RWRU			Bar:BL			Bar:BR		 	LKJCWK			RKJCWK			RAJCWK			LAJCWK			RHJCWK			LHJCWK
		X1	Y1	Z1	X2	Y2	Z2	X3	Y3	Z3	X4	Y4	Z4	X5	Y5	Z5	X6	Y6	Z6	X7	Y7	Z7	X8	Y8	Z8	X9	Y9	Z9	X10	Y10	Z10	X11	Y11	Z11	X12	Y12	Z12	X13	Y13	Z13	X14	Y14	Z14	X15	Y15	Z15	X16	Y16	Z16	X17	Y17	Z17	X18	Y18	Z18	X19	Y19	Z19	X20	Y20	Z20	X21	Y21	Z21	X22	Y22	Z22	X23	Y23	Z23	X24	Y24	Z24	X25	Y25	Z25	X26	Y26	Z26	X27	Y27	Z27	X28	Y28	Z28	X29	Y29	Z29	X30	Y30	Z30	X31	Y31	Z31	X32	Y32	Z32	X33	Y33	Z33	X34	Y34	Z34	X35	Y35	Z35	X36	Y36	Z36	X37	Y37	Z37	X38	Y38	Z38	X39	Y39	Z39	X40	Y40	Z40	X41	Y41	Z41	X42	Y42	Z42	X43	Y43	Z43	X44	Y44	Z44	X45	Y45	Z45	X46	Y46	Z46	X47	Y47	Z47	X48	Y48	Z48	X49	Y49	Z49	X50	Y50	Z50	X51	Y51	Z51	X52	Y52	Z52	X53	Y53	Z53	X54	Y54	Z54	X55	Y55	Z55	X56	Y56	Z56	X57	Y57	Z57	X58	Y58	Z58	X59	Y59	Z59	X60	Y60	Z60	X61	Y61	Z61	X62	Y62	Z62	X63	Y63	Z63	X64	Y64	Z64	X65	Y65	Z65	X66	Y66	Z66	X67	Y67	Z67	X68	Y68	Z68	X69	Y69	Z69	X70	Y70	Z70	X71	Y71	Z71	X72	Y72	Z72	X73	Y73	Z73	X74 	Y74 	Z74 	X75 	Y75 	Z75 	X76 	Y76 	Z76 	X77 	Y77 	Z77 	X78 	Y78 	Z78 	X79 	Y79 	Z79
																																																																																																																																																																																																																												
260	1.295	359.7855	1572.6223	-1216.1284	301.3171	1587.8992	-1139.4261	296.5535	1588.1105	-1291.5579	134.6931	1449.2083	-1211.9948	79.5867	1244.4926	-1226.5634	75.2647	1212.199	-1230.8179	70.2179	1151.3263	-1178.9148	79.5651	1150.4044	-1227.8049	92.7273	1109.58	-1226.5986	69.3218	1087.1554	-1225.8827	70.5951	1027.5404	-1172.7781	62.9401	1025.3889	-1222.3837	73.6675	975.9698	-1247.7957	80.8167	985.417	-1197.9965	50.0913	927.4911	-1209.2072	289.4729	942.3745	-1336.5621	293.6301	941.9431	-1109.0302	85.4035	991.8338	-1259.532	86.1653	990.5045	-1170.4424	202.8845	737.5969	-1443.6686	153.536	677.1404	-1426.6051	201.8962	675.7775	-1441.2164	192.7279	497.9655	-1427.0608	216.3601	466.115	-1283.0321	152.4455	442.4031	-1428.0883	144.9532	326.4579	-1449.7648	101.8093	260.3773	-1444.4402	151.1224	264.5286	-1450.0609	126.1842	85.3673	-1434.1125	169.3762	96.3484	-1350.4755	78.4275	38.9593	-1374.8402	289.6601	47.3114	-1391.2449	238.5663	32.1001	-1492.1604	176.0772	708.2969	-1006.3569	207.2587	635.9933	-992.6859	161.5375	647.7038	-1009.5953	161.2569	496.8938	-1013.8304	209.1441	461.5435	-1151.7659	117.1882	442.5562	-1015.2896	91.7223	323.3416	-998.3485	131.2912	256.0724	-983.1575	85.2234	262.2562	-1002.2853	90.0992	86.8121	-1016.8146	153.0997	97.0317	-1084.2804	58.0753	38.3054	-1077.6665	261.5975	43.1938	-1022.2584	202.3572	40.9578	-937.207	283.5239	1365.7793	-1224.7158	320.3558	1208.1422	-1226.626	144.6122	1412.8188	-1400.265	131.8065	1347.676	-1513.7717	122.2436	1297.1552	-1556.0825	156.4922	1332.4113	-1573.2227	167.7391	1294.9143	-1681.5303	190.1246	1208.6991	-1631.3915	196.554	1262.9323	-1767.3257	201.9972	1226.3776	-1821.6588	240.6337	1257.5947	-1815.4243	309.8456	1185.778	-1860.7209	252.5883	1208.074	-1903.2679	162.1307	1402.2972	-1041.4801	172.3899	1335.3871	-909.0107	222.6526	1326.6134	-866.0754	177.3486	1315.5447	-845.5969	169.7591	1288.9656	-795.0587	224.9665	1195.1022	-808.7766	227.5237	1270.9691	-672.5932	278.2853	1259.1174	-633.1139	233.3867	1246.6936	-612.6078	315.658	1178.7427	-580.1808	249.7823	1211.4175	-543.5323	1512.0774	1285.4558	-2307.3962	1540.6377	1283.4025	-83.9718	204.544	482.0402	-1355.0464	185.2005	479.2186	-1082.7981	119.8824	81.466	-1049.6768	146.2462	80.2866	-1393.3006	233.7529	873.5041	-1139.388	230.7399	873.8168	-1304.296
261	1.3	359.7745	1572.6124	-1216.1349	301.3188	1587.9001	-1139.4325	296.5399	1588.1119	-1291.562	134.6758	1449.2062	-1211.9989	79.5814	1244.4932	-1226.5707	75.2706	1212.1897	-1230.8375	70.2103	1151.3282	-1178.9253	79.5377	1150.4004	-1227.8175	92.7215	1109.5793	-1226.6047	69.3151	1087.1506	-1225.8885	70.5971	1027.5399	-1172.7856	62.939	1025.3849	-1222.3834	73.7233	975.9545	-1247.7708	80.8499	985.4084	-1198.0237	50.0809	927.4927	-1209.2113	289.4795	942.375	-1336.5594	293.6289	941.9485	-1109.0297	85.3994	991.8355	-1259.5348	86.1672	990.5061	-1170.4462	202.8957	737.601	-1443.6641	153.5475	677.1503	-1426.6025	201.9135	675.8297	-1441.3024	192.7192	497.968	-1427.0552	216.3549	466.1128	-1283.0161	152.4448	442.403	-1428.0781	144.9451	326.4646	-1449.7565	101.8003	260.381	-1444.4421	151.12	264.5335	-1450.064	126.1927	85.3708	-1434.1147	169.3803	96.3457	-1350.4724	78.4408	38.9605	-1374.8334	289.652	47.3053	-1391.2507	238.5582	32.0926	-1492.1644	176.0717	708.2953	-1006.3603	207.2541	635.9995	-992.6802	161.5357	647.7199	-1009.5945	161.261	496.8953	-1013.8312	209.1585	461.5533	-1151.7665	117.1874	442.5574	-1015.2906	91.7571	323.335	-998.373	131.2932	256.0769	-983.158	85.2267	262.2613	-1002.2784	90.0973	86.8145	-1016.8156	153.0916	97.0324	-1084.2831	58.0672	38.2948	-1077.6675	261.5978	43.1931	-1022.2534	202.3604	40.9548	-937.2088	283.5113	1365.7804	-1224.7164	320.3473	1208.1499	-1226.642	144.6104	1412.8231	-1400.2717	131.8139	1347.6837	-1513.781	122.2356	1297.1539	-1556.0847	156.4995	1332.408	-1573.2275	167.7275	1294.9117	-1681.5399	190.083	1208.7925	-1631.5341	196.5493	1262.9183	-1767.3389	201.9903	1226.3745	-1821.6632	240.6237	1257.5977	-1815.438	309.845	1185.7836	-1860.723	252.5907	1208.0721	-1903.277	162.1231	1402.2994	-1041.484	172.4082	1335.4156	-909.0714	222.6619	1326.5959	-866.0854	177.342	1315.5416	-845.5998	169.741	1288.9556	-795.0626	224.9625	1195.0946	-808.7871	227.5054	1270.968	-672.6074	278.2894	1259.1305	-633.1168	233.3643	1246.6865	-612.6298	315.6653	1178.7397	-580.1942	249.7784	1211.41	-543.5441	1512.0955	1285.4576	-2307.4077	1540.6449	1283.3921	-83.9635	204.537	482.0404	-1355.0356	185.2098	479.2243	-1082.7989	119.8771	81.4677	-1049.6787	146.2529	80.287	-1393.3004	233.7536	873.5083	-1139.387	230.7461	873.8174	-1304.295
262	1.305	359.7613	1572.6068	-1216.1382	301.3124	1587.8983	-1139.4354	296.5267	1588.1119	-1291.5658	134.6651	1449.2031	-1212.0005	79.5678	1244.5021	-1226.5819	75.2714	1212.1816	-1230.8574	70.198	1151.3229	-1178.9412	79.5286	1150.3999	-1227.8315	92.7112	1109.5752	-1226.6049	69.3124	1087.147	-1225.8904	70.5979	1027.5349	-1172.7847	62.9334	1025.3795	-1222.3884	73.6878	975.963	-1247.7958	80.818	985.4127	-1198.0262	50.0853	927.4951	-1209.2267	289.4809	942.378	-1336.5588	293.6272	941.9548	-1109.0292	85.3954	991.8276	-1259.531	86.1595	990.505	-1170.4456	202.8947	737.5966	-1443.6455	153.5479	677.1566	-1426.6051	201.9166	675.7423	-1441.1083	192.7154	497.969	-1427.0587	216.3426	466.1151	-1282.9899	152.4378	442.4043	-1428.0818	144.9361	326.4775	-1449.7721	101.7919	260.3812	-1444.4399	151.1167	264.5417	-1450.0645	126.1822	85.3686	-1434.1105	169.379	96.3452	-1350.478	78.4357	38.9606	-1374.8398	289.6489	47.3004	-1391.2477	238.5507	32.0907	-1492.1644	176.0681	708.3013	-1006.3623	207.2567	635.9948	-992.6736	161.5313	647.7169	-1009.5879	161.2571	496.9003	-1013.823	209.1431	461.54	-1151.764	117.1806	442.5569	-1015.2899	91.7523	323.3363	-998.3736	131.2813	256.0673	-983.1486	85.2253	262.2594	-1002.2816	90.1013	86.8096	-1016.8118	153.0946	97.0287	-1084.2797	58.0656	38.2907	-1077.6665	261.5996	43.1988	-1022.2441	202.3576	40.9527	-937.2077	283.499	1365.7816	-1224.7325	320.332	1208.1381	-1226.647	144.6111	1412.8234	-1400.2787	131.8019	1347.7043	-1513.7827	122.2242	1297.1655	-1556.0934	156.5051	1332.4146	-1573.2374	167.7191	1294.9067	-1681.5396	190.061	1208.7889	-1631.5413	196.5249	1262.9186	-1767.3268	201.9842	1226.3717	-1821.6693	240.6139	1257.5942	-1815.436	309.8481	1185.7889	-1860.7275	252.5867	1208.0747	-1903.2759	162.1024	1402.2913	-1041.4922	172.3667	1335.3678	-909.0504	222.6609	1326.5836	-866.0945	177.3325	1315.53	-845.6077	169.7408	1288.9531	-795.0796	224.9641	1195.0925	-808.7952	227.5217	1270.9419	-672.6256	278.2969	1259.0173	-633.1741	233.5326	1246.5898	-612.6286	315.6624	1178.7401	-580.1954	249.7822	1211.405	-543.5605	1512.0823	1285.4523	-2307.3972	1540.6471	1283.402	-83.9639	204.529	482.042	-1355.0243	185.2001	479.2201	-1082.7935	119.8809	81.4633	-1049.6751	146.247	80.2857	-1393.3014	233.7555	873.5112	-1139.3863	230.7504	873.8179	-1304.295
263	1.31	359.7416	1572.6073	-1216.1594	301.3113	1587.8861	-1139.4386	296.512	1588.1123	-1291.5701	134.6502	1449.2046	-1211.999	79.5737	1244.491	-1226.5986	75.258	1212.1834	-1230.8621	70.183	1151.3217	-1178.957	79.5392	1150.3975	-1227.8414	92.708	1109.5693	-1226.6235	69.3107	1087.1425	-1225.8982	70.5888	1027.5338	-1172.7877	62.9308	1025.3756	-1222.3898	73.7202	975.9684	-1247.7915	80.8365	985.3934	-1198.0302	50.0894	927.4725	-1209.233	289.4745	942.3694	-1336.5601	293.6245	941.9575	-1109.0305	85.3937	991.8199	-1259.5353	86.1561	990.5066	-1170.4449	202.8953	737.6042	-1443.6403	153.5399	677.1566	-1426.6058	201.8422	675.6201	-1440.7198	192.7099	497.9776	-1427.0557	216.3327	466.105	-1282.9314	152.4198	442.4132	-1428.0885	144.9248	326.478	-1449.7762	101.7922	260.3802	-1444.4397	151.1089	264.5502	-1450.0721	126.1926	85.3721	-1434.1171	169.3784	96.3457	-1350.4841	78.417	38.9631	-1374.8463	289.6539	47.3031	-1391.2479	238.5576	32.0883	-1492.1637	176.0702	708.3046	-1006.3605	207.2561	636.0002	-992.6773	161.534	647.7185	-1009.5815	161.2516	496.898	-1013.8247	209.1583	461.5517	-1151.7625	117.1831	442.5542	-1015.2916	91.5998	323.3546	-998.0704	131.2874	256.0698	-983.1473	85.2247	262.254	-1002.2804	90.1014	86.8127	-1016.8149	153.0881	97.0345	-1084.2773	58.0684	38.2959	-1077.6761	261.5953	43.1936	-1022.2552	202.3607	40.9552	-937.21	283.4822	1365.7787	-1224.7318	320.3284	1208.1389	-1226.6558	144.6571	1412.7856	-1400.2714	131.8047	1347.7054	-1513.8035	122.2243	1297.1908	-1556.0901	156.502	1332.4094	-1573.2411	167.7056	1294.9021	-1681.5447	190.0477	1208.7845	-1631.5419	196.4687	1262.8983	-1767.2317	201.9836	1226.3717	-1821.6753	240.6101	1257.5906	-1815.4414	309.847	1185.7988	-1860.7338	252.5832	1208.0747	-1903.2788	162.0908	1402.2913	-1041.5022	172.3291	1335.3617	-909.0522	222.6472	1326.5814	-866.1124	177.3254	1315.5175	-845.6151	169.7362	1288.9458	-795.1005	224.9585	1195.0828	-808.8127	227.5155	1270.9523	-672.6129	278.3865	1258.9298	-633.0472	233.5257	1246.5845	-612.6448	315.6543	1178.7339	-580.2152	249.7767	1211.3967	-543.5706	1512.0721	1285.4482	-2307.3928	1540.6522	1283.4142	-83.9662	204.5213	482.0413	-1354.9935	185.205	479.2249	-1082.7936	119.8775	81.4678	-1049.6756	146.2523	80.2877	-1393.3088	233.7524	873.5124	-1139.3832	230.7446	873.8109	-1304.292
